<svg xmlns="http://www.w3.org/2000/svg" width="1040" height="247" viewBox="0 0 1040 247" role="img" aria-labelledby="title desc">
  <title id="title">OpenADA public page checker</title>
  <desc id="desc">A URL field with a page count picker and Scan site button.</desc>
  <rect width="1040" height="247" fill="#f6f8fb"/>
  <text x="520" y="55" fill="#172033" font-family="Arial, Helvetica, sans-serif" font-size="38" font-weight="800" text-anchor="middle">OpenADA Accessibility and Language API</text>
  <rect x="12" y="79" width="1016" height="168" rx="8" fill="#ffffff" stroke="#dce3ea"/>
  <text x="520" y="114" fill="#25635f" font-family="Arial, Helvetica, sans-serif" font-size="14" font-weight="800" letter-spacing="1" text-anchor="middle">CHECK A PUBLIC PAGE OR WEBSITE</text>
  <text x="520" y="136" fill="#64748b" font-family="Arial, Helvetica, sans-serif" font-size="13" text-anchor="middle">Paste a URL to see accessibility and language findings.</text>
  <rect x="37" y="153" width="963" height="48" rx="24" fill="#fbfcfe" stroke="#cbd5e1"/>
  <circle cx="64" cy="177" r="8" fill="none" stroke="#64748b" stroke-width="2"/>
  <path d="M56 177h16M64 169c3 3 3 13 0 16M59 171c2 2 8 2 10 0M59 183c2-2 8-2 10 0" fill="none" stroke="#64748b" stroke-width="1.2"/>
  <text x="87" y="183" fill="#64748b" font-family="Arial, Helvetica, sans-serif" font-size="16">https://example.com/page</text>
  <line x1="768" y1="153" x2="768" y2="201" stroke="#dce3ea"/>
  <text x="778" y="183" fill="#172033" font-family="Arial, Helvetica, sans-serif" font-size="14" font-weight="800">5 pages</text>
  <path d="M856 174l5 5 5-5" fill="none" stroke="#334155" stroke-width="2"/>
  <rect x="870" y="157" width="126" height="40" rx="20" fill="#7b8491"/>
  <path d="M887 171v-2a3 3 0 0 1 3-3h2M899 166h2a3 3 0 0 1 3 3v2M904 183v2a3 3 0 0 1-3 3h-2M892 188h-2a3 3 0 0 1-3-3v-2M893 177a4 4 0 1 0 8 0 4 4 0 1 0-8 0z" fill="none" stroke="#ffffff" stroke-width="1.6"/>
  <text x="942" y="182" fill="#ffffff" font-family="Arial, Helvetica, sans-serif" font-size="14" font-weight="800" text-anchor="middle">Scan site</text>
  <text x="520" y="225" fill="#64748b" font-family="Arial, Helvetica, sans-serif" font-size="13" text-anchor="middle">We scan public pages on the same site. Choose the crawl size before you start.</text>
</svg>
